<?xml version="1.0" encoding="utf-8"?>
<!-- Generator: Adobe Illustrator 25.2.0, SVG Export Plug-In . SVG Version: 6.00 Build 0)  -->
<svg version="1.1" id="Group_6405" xmlns="http://www.w3.org/2000/svg" xmlns:xlink="http://www.w3.org/1999/xlink" x="0px" y="0px"
	 viewBox="0 0 56.5 18.5" style="enable-background:new 0 0 56.5 18.5;" xml:space="preserve">
<style type="text/css">
	.st0{fill:#FFFFFF;}
</style>
<g>
	<path class="st0" d="M22.8,14.9c0-2.7,0-5.3,0-8c-2.6,0-5.2,0-7.8,0c0,0.5,0,1.1,0,1.6c1.3,0,2.5,0,3.8,0c0,0.8,0,1.6,0,2.3
		c-1.3,0-2.5,0-3.8,0c0,0.1,0,0.2,0,0.3c0,1.2,0,2.4,0,3.6c0,0.2,0,0.2-0.2,0.2c-0.8,0-1.6,0-2.4,0c-0.1,0-0.1,0-0.2,0
		c-0.1-0.4,0-10.6,0-10.8c0.1,0,0.1,0,0.2,0c5.3,0,10.7,0,16,0c0.3,0,0.3,0,0.3,0.3c0,0.8,0,1.6,0,2.4c0,0.1,0,0.1,0,0.2
		c-0.1,0-0.2,0-0.2,0c-0.8,0-1.7,0-2.5,0c-0.3,0-0.3,0-0.3,0.3c0,2.5,0,5,0,7.5c0,0.3,0,0.3-0.3,0.3c-0.8,0-1.6,0-2.4,0
		C23,14.9,22.9,14.9,22.8,14.9z"/>
	<path class="st0" d="M2.8,9.5c0,0.1,0,0.2,0,0.3c0,1.7,0,3.3,0,5c0,0.2,0,0.2-0.2,0.2c-0.8,0-1.6,0-2.4,0c-0.2,0-0.2,0-0.2-0.2
		c0-3.6,0-7.2,0-10.8c0-0.1,0-0.1,0-0.2c2.4,2,4.7,4,7.2,6c0-0.1,0-0.2,0-0.3c0-1.6,0-3.3,0-4.9c0-0.2,0-0.2,0.2-0.2
		c0.8,0,1.6,0,2.4,0c0.2,0,0.2,0,0.2,0.2c0,3.6,0,7.2,0,10.8c0,0.1,0,0.1,0,0.2C7.6,13.4,5.3,11.5,2.8,9.5z"/>
	<path class="st0" d="M42.9,10c1,0,2,0,3,0c0-0.1,0-0.2,0-0.2c0-0.7,0-1.5,0-2.2c0-0.1,0-0.2,0.1-0.2c0.6,0,1.2,0,1.9,0
		c0,0,0,0,0.1,0c0,2.5,0,5,0,7.5c-0.1,0-0.1,0-0.2,0c-0.6,0-1.2,0-1.7,0c-0.2,0-0.2,0-0.2-0.2c0-0.8,0-1.7,0-2.5c0-0.1,0-0.2,0-0.3
		c-1,0-2,0-3,0c0,1,0,2,0,3c-0.7,0-1.4,0-2.1,0c0-2.5,0-5,0-7.5c0.7,0,1.4,0,2.1,0C42.9,8.2,42.9,9.1,42.9,10z"/>
	<path class="st0" d="M51.5,11.7c0,1,0,2,0,3.1c-0.3,0-0.5,0-0.7,0c-0.4,0-0.8,0-1.3,0c-0.1,0-0.2,0-0.2-0.2c0-2.4,0-4.8,0-7.2
		c0-0.1,0-0.2,0.1-0.2c0.7,0,1.3,0,2,0c0,0.9,0,1.9,0,2.8c0,0,0,0,0,0c0-0.1,0.1-0.1,0.1-0.2c0.7-0.8,1.4-1.7,2.2-2.5
		c0.1-0.1,0.2-0.1,0.2-0.1c0.7,0,1.4,0,2.1,0c0,0,0.1,0,0.2,0c-0.1,0.1-0.1,0.1-0.2,0.2c-0.9,1.1-1.8,2.1-2.7,3.2
		c-0.1,0.1-0.1,0.2,0,0.3c1,1.2,1.9,2.4,2.9,3.6c0,0.1,0.1,0.1,0.2,0.2c-0.1,0-0.1,0-0.2,0c-0.7,0-1.4,0-2.1,0c-0.1,0-0.2,0-0.3-0.1
		c-0.7-0.9-1.5-1.9-2.2-2.8C51.6,11.8,51.6,11.8,51.5,11.7C51.5,11.7,51.5,11.7,51.5,11.7z"/>
	<path class="st0" d="M33,9.2c-0.9,0-1.8,0-2.8,0c0-0.6,0-1.2,0-1.8c2,0,4,0,6.1,0c-1.1,1.9-2.3,3.8-3.4,5.7c1,0,2,0,3,0
		c0,0.6,0,1.2,0,1.8c-2.1,0-4.1,0-6.3,0C30.8,12.9,31.9,11.1,33,9.2z"/>
	<path class="st0" d="M38.2,15.1c-0.6,0-1.1-0.5-1.1-1.1c0-0.6,0.5-1.1,1.1-1.1c0.7,0,1.1,0.5,1.1,1.1
		C39.4,14.7,38.9,15.1,38.2,15.1z"/>
</g>
</svg>
